<?xml version="1.0" standalone="no"?>
<!DOCTYPE svg PUBLIC "-//W3C//DTD SVG 20010904//EN"
 "http://www.w3.org/TR/2001/REC-SVG-20010904/DTD/svg10.dtd">
<svg version="1.0" xmlns="http://www.w3.org/2000/svg"
 width="260.000000pt" height="260.000000pt" viewBox="0 0 260.000000 260.000000"
 preserveAspectRatio="xMidYMid meet">
<metadata>
Created by potrace 1.14, written by Peter Selinger 2001-2017
</metadata>
<g transform="translate(0.000000,260.000000) scale(0.100000,-0.100000)"
fill="#000000" stroke="none">
<path d="M487 1724 c-3 -4 -27 -8 -54 -11 -65 -7 -76 -8 -93 -15 -8 -3 -44
-14 -80 -23 -36 -9 -71 -22 -77 -27 -7 -6 -13 -7 -13 -4 0 7 -55 -28 -77 -50
-17 -16 -18 -45 -3 -76 12 -26 39 -33 56 -15 19 19 21 2 4 -45 -20 -60 -29
-112 -34 -211 -3 -52 1 -76 16 -107 22 -44 25 -45 63 -28 27 12 28 17 25 96
-1 36 3 53 12 56 7 2 38 12 68 21 60 18 162 57 170 65 3 3 19 12 35 20 17 8
36 21 43 28 7 6 19 12 26 12 16 0 91 80 100 107 36 115 -7 187 -120 198 -25 3
-49 7 -53 10 -5 2 -11 2 -14 -1z m66 -106 c24 -6 37 -27 29 -47 -15 -39 -100
-110 -124 -103 -5 1 -8 -2 -8 -7 0 -5 -17 -15 -37 -22 -42 -13 -145 -60 -153
-69 -10 -11 -29 -9 -25 3 2 6 6 29 9 49 3 21 11 58 16 84 6 25 8 54 5 64 -7
21 0 27 38 34 15 4 39 9 54 12 15 3 29 7 31 9 4 4 142 -1 165 -7z"/>
<path d="M1775 1710 c-16 -4 -47 -14 -68 -23 -20 -9 -40 -16 -42 -16 -20 0
-108 -54 -152 -95 -85 -77 -123 -164 -119 -269 2 -60 18 -104 44 -120 6 -4 12
-13 12 -20 0 -18 132 -77 171 -77 46 0 162 32 232 63 31 14 57 23 57 19 0 -4
4 -2 8 3 4 6 26 23 50 38 23 15 42 32 42 37 0 6 6 10 13 10 18 0 61 60 60 82
-5 55 -96 117 -176 119 -105 3 -243 -2 -254 -9 -16 -10 -22 -75 -7 -89 7 -7
14 -17 16 -23 4 -13 16 -13 131 -5 48 4 99 4 114 0 l27 -6 -40 -22 c-35 -20
-123 -58 -149 -63 -116 -26 -165 -24 -212 12 -34 26 -35 31 -11 111 17 61 118
164 151 155 4 -1 7 3 7 10 0 6 3 9 6 6 3 -4 26 3 51 14 25 11 67 21 94 22 27
2 51 5 52 7 2 2 8 16 14 31 10 23 9 32 -10 59 -24 36 -63 49 -112 39z"/>
<path d="M797 1523 c-11 -11 -8 -58 5 -71 16 -16 55 -15 61 1 5 14 -13 59 -28
69 -13 10 -30 10 -38 1z"/>
<path d="M2290 1435 c-89 -27 -109 -58 -107 -167 2 -66 5 -80 27 -103 35 -38
77 -53 136 -50 92 5 186 63 212 130 12 31 8 81 -9 101 -5 6 -6 14 -2 17 3 4 2
7 -3 7 -6 0 -19 8 -30 19 -23 21 -61 43 -84 49 -36 8 -108 7 -140 -3z m155
-91 c31 -8 48 -40 34 -63 -11 -16 -73 -47 -82 -39 -2 2 -10 -2 -18 -8 -17 -15
-86 -11 -102 5 -18 18 14 94 44 102 30 9 98 10 124 3z"/>
<path d="M1163 1390 c-29 -17 -53 -34 -53 -39 0 -7 -43 -31 -55 -31 -3 0 -5 8
-5 18 0 23 -19 42 -41 42 -16 0 -34 -52 -46 -130 -13 -88 -7 -106 39 -114 21
-3 31 1 44 22 18 27 72 89 109 124 22 21 52 19 46 -3 -1 -8 -3 -42 -4 -76 -1
-67 15 -97 52 -100 24 -2 30 19 38 129 4 68 2 96 -12 132 -10 25 -21 46 -26
46 -4 0 -13 2 -21 5 -7 3 -37 -9 -65 -25z"/>
<path d="M771 1322 c-28 -68 -13 -179 26 -193 35 -13 46 5 50 86 4 68 2 79
-20 103 -31 36 -43 37 -56 4z"/>
<path d="M1010 991 c0 -11 39 -41 52 -41 19 0 6 28 -17 38 -31 14 -35 15 -35
3z"/>
<path d="M1490 977 c0 -10 20 -12 80 -10 44 1 80 -1 80 -5 0 -5 -12 -19 -27
-32 -20 -17 -23 -25 -14 -28 8 -3 20 3 26 12 7 9 15 16 19 16 12 0 45 44 39
52 -2 5 -49 8 -104 8 -74 0 -99 -3 -99 -13z"/>
<path d="M1567 943 c-2 -5 -9 -26 -16 -48 -8 -24 -26 -50 -46 -65 -36 -27 -37
-47 -2 -29 38 19 72 70 82 121 4 18 -10 34 -18 21z"/>
<path d="M966 931 c-3 -4 3 -16 14 -26 27 -24 50 -6 25 19 -18 18 -31 20 -39
7z"/>
<path d="M1240 924 c0 -7 13 -11 30 -10 30 2 30 2 24 -38 -7 -48 -11 -57 -27
-55 -30 4 -67 -2 -67 -10 0 -9 98 -20 106 -11 3 2 23 3 44 1 24 -1 40 2 40 8
0 10 -36 16 -69 11 -11 -1 -12 6 -6 32 4 18 7 39 8 46 0 12 4 13 42 16 11 0
21 6 22 11 2 6 -27 10 -72 10 -51 0 -75 -3 -75 -11z"/>
<path d="M1112 899 c-13 -16 -28 -27 -33 -23 -5 3 -9 0 -9 -6 0 -9 -16 -18
-60 -35 -3 -1 -20 -6 -37 -10 -35 -8 -35 -25 -1 -25 34 0 125 51 165 92 31 31
34 38 18 37 -11 0 -30 -13 -43 -30z"/>
</g>
</svg>
