<?xml version="1.0" standalone="no"?>
<!DOCTYPE svg PUBLIC "-//W3C//DTD SVG 20010904//EN"
 "http://www.w3.org/TR/2001/REC-SVG-20010904/DTD/svg10.dtd">
<svg version="1.0" xmlns="http://www.w3.org/2000/svg"
 width="183.000000pt" height="183.000000pt" viewBox="0 0 183.000000 183.000000"
 preserveAspectRatio="xMidYMid meet">
<metadata>
Created by potrace 1.11, written by Peter Selinger 2001-2013
</metadata>
<g transform="translate(0.000000,183.000000) scale(0.100000,-0.100000)"
fill="#000000" stroke="none">
<path d="M830 1489 c-14 -4 -53 -5 -87 -2 -44 4 -63 2 -63 -6 0 -7 13 -10 38
-7 20 3 51 -2 67 -9 28 -13 24 -14 -50 -9 -112 7 -166 14 -161 22 2 4 -21 7
-52 6 -38 0 -56 -4 -55 -12 3 -11 -83 -41 -134 -47 -14 -1 -28 -7 -32 -12 -3
-5 -32 -26 -65 -47 -44 -29 -55 -41 -45 -48 10 -7 9 -8 -5 -4 -10 4 -29 -1
-42 -9 -13 -9 -24 -12 -24 -8 -1 11 -16 -18 -24 -44 -6 -17 -3 -23 8 -23 12 0
15 -9 13 -40 -4 -48 0 -51 14 -10 6 17 16 30 22 30 6 0 18 7 28 16 17 16 18
15 6 -17 -7 -19 -19 -39 -27 -46 -13 -11 -13 -12 -1 -13 11 0 9 -4 -5 -15 -13
-10 -15 -14 -5 -15 7 0 1 -10 -15 -22 -36 -28 -52 -49 -50 -63 2 -5 1 -7 -1
-2 -3 4 -9 5 -14 1 -5 -3 -9 4 -9 15 0 11 -3 22 -8 25 -4 2 -7 -17 -7 -42 0
-26 -3 -60 -7 -77 -6 -26 -5 -25 10 7 19 41 39 45 34 7 -2 -13 -3 -36 -4 -51
0 -18 -4 -25 -12 -21 -6 3 -3 -3 7 -14 10 -11 19 -34 20 -52 1 -17 5 -31 9
-31 4 0 10 -9 13 -20 4 -11 11 -17 17 -14 6 4 5 10 -3 15 -11 7 -10 9 4 9 10
0 18 -8 18 -20 2 -35 26 -108 42 -128 14 -17 20 -88 9 -108 -6 -12 -11 -6 -20
25 -10 32 -18 40 -39 43 -24 3 -26 7 -28 60 -2 35 -9 63 -18 72 -13 14 -16 12
-27 -14 -9 -23 -10 -33 -1 -44 6 -8 10 -18 9 -24 -5 -16 75 -133 88 -128 7 3
14 -5 16 -17 2 -16 12 -23 38 -27 19 -4 47 -18 61 -32 28 -28 96 -67 85 -49
-4 6 0 11 8 11 9 0 16 -4 16 -8 0 -10 85 -52 104 -52 8 0 16 5 18 11 5 15 85
14 103 -1 11 -9 12 -7 8 9 -3 14 -1 21 8 21 11 0 11 2 -1 10 -8 5 -28 10 -43
10 -15 0 -39 7 -52 16 -15 10 -41 15 -67 13 -44 -3 -98 8 -98 20 0 13 42 33
52 23 5 -5 29 -7 54 -4 28 3 44 1 44 -6 0 -6 8 -11 18 -11 16 0 39 -5 145 -32
23 -6 64 -14 91 -17 46 -7 48 -8 25 -19 -58 -28 -99 -37 -99 -23 0 18 -25 11
-38 -11 -13 -21 -13 -21 55 -14 76 8 156 22 133 24 -13 1 -13 3 0 10 8 6 27 7
43 4 41 -8 131 16 160 43 14 12 28 20 31 17 3 -4 6 -1 6 6 0 10 10 11 33 7 24
-5 59 2 123 24 49 17 108 37 131 43 23 7 45 16 49 20 4 4 12 7 18 7 6 0 4 -5
-4 -10 -8 -5 -10 -10 -4 -10 6 0 17 6 23 14 10 12 47 18 116 18 11 0 47 -3 79
-8 50 -6 64 -13 85 -38 15 -16 25 -34 24 -38 -2 -4 3 -8 11 -8 8 0 17 -11 20
-25 4 -14 13 -25 21 -25 20 0 19 44 -1 75 -15 24 -15 25 2 25 49 0 -72 44
-162 58 -41 7 -41 7 -21 27 11 11 17 14 13 8 -9 -16 23 -17 44 -2 13 9 13 10
-2 6 -12 -4 -18 2 -23 24 -6 26 -9 393 -4 429 1 8 1 30 1 47 l-2 33 -168 -5
c-171 -4 -216 -10 -190 -26 7 -5 -29 -8 -87 -7 -99 1 -100 1 -28 7 110 9 109
25 -2 29 l-93 3 -7 -153 c-5 -118 -3 -357 4 -420 1 -5 26 -8 58 -8 54 0 66 -6
27 -14 -31 -7 -109 -44 -136 -66 -36 -28 -148 -37 -208 -18 -37 12 -59 13
-119 4 -57 -8 -76 -7 -79 2 -2 7 -17 12 -34 12 -34 0 -98 27 -98 42 0 6 -7 8
-15 5 -8 -4 -17 -1 -21 5 -5 7 -2 8 6 3 9 -5 11 -4 6 3 -4 7 -17 12 -29 13
-15 1 -10 4 13 10 20 5 69 4 115 -1 104 -13 198 -13 211 0 7 7 35 7 87 -1 42
-6 84 -8 94 -3 13 6 5 10 -32 14 l-50 7 48 1 47 2 0 71 c0 38 -4 68 -9 65 -20
-13 -108 32 -168 87 -80 72 -108 75 -154 17 -39 -49 -126 -110 -157 -110 -34
0 -26 27 11 39 57 19 118 71 138 118 10 24 25 43 34 43 8 0 15 9 15 19 0 37
-12 51 -41 51 -33 0 -39 -19 -9 -27 30 -8 13 -23 -26 -23 -28 0 -34 4 -34 21
0 14 -5 19 -17 17 -17 -3 -29 -22 -53 -83 -10 -26 -13 -28 -22 -12 -5 10 -6
26 -2 35 4 9 6 24 5 33 -1 9 3 28 8 43 10 24 14 26 48 21 47 -7 134 6 134 20
0 6 -28 15 -62 20 -34 6 -64 15 -66 21 -5 14 300 14 313 1 15 -15 -21 -28 -61
-22 -27 4 -47 1 -60 -9 -20 -14 -19 -14 5 -20 46 -9 115 -17 142 -17 21 1 31
-6 43 -28 17 -34 19 -79 5 -101 -9 -13 -11 -13 -20 0 -5 8 -12 31 -15 52 -7
42 -41 63 -57 34 -10 -17 -68 -23 -68 -6 0 6 5 10 10 10 6 0 10 5 10 10 0 14
-54 12 -68 -2 -23 -23 -11 -49 50 -108 35 -33 66 -60 69 -60 4 0 35 -16 68
-34 l61 -35 0 162 c0 108 4 157 10 147 5 -8 8 -37 5 -65 -3 -37 -2 -43 4 -25
14 40 12 133 -4 160 -11 19 -14 21 -15 8 0 -16 -19 -18 -255 -16 -140 1 -257
-1 -260 -4 -3 -2 -6 -56 -7 -119 -1 -96 -5 -116 -20 -129 -15 -13 -18 -32 -19
-123 -1 -99 -6 -128 -13 -80 -2 12 -10 17 -24 15 -22 -3 -52 31 -52 59 0 9 7
23 16 30 11 9 14 23 10 48 -3 19 0 41 6 48 6 8 12 30 13 51 2 47 32 149 46
158 7 4 9 -22 5 -87 l-6 -94 14 60 c8 33 15 88 15 122 1 74 1 73 121 70 l85
-2 5 43 c4 35 11 46 38 62 18 11 35 27 38 35 13 34 146 -2 216 -58 32 -26 44
-29 100 -28 133 3 168 17 168 68 0 25 -8 38 -33 57 -19 15 -39 26 -45 26 -6 0
-16 9 -22 20 -16 30 -105 71 -163 75 -68 5 -111 23 -97 40 14 17 1 24 -30 14z
m-380 -144 c0 -3 -17 -12 -37 -20 -21 -9 -53 -30 -70 -47 -18 -18 -33 -27 -33
-21 0 23 37 54 85 73 58 22 55 21 55 15z m-236 -80 c-6 -16 -24 -21 -24 -7 0
11 11 22 21 22 5 0 6 -7 3 -15z m351 -16 c6 -6 3 -15 -7 -26 -14 -14 -27 -15
-90 -7 l-73 10 40 21 c41 22 108 23 130 2z m-156 -65 c2 -1 -6 -18 -17 -36
-11 -18 -22 -53 -25 -78 -8 -70 -18 -100 -34 -100 -12 0 -14 -7 -10 -29 3 -16
2 -44 -3 -63 -8 -26 -16 -34 -35 -36 -14 -1 -25 3 -25 8 0 6 5 10 10 10 6 0
10 5 10 10 0 6 -9 10 -20 10 -22 0 -27 24 -8 36 8 5 9 2 5 -9 -4 -11 -1 -17 8
-17 8 0 18 -7 23 -16 7 -12 11 -13 17 -4 4 7 -2 18 -14 27 -21 14 -21 16 -5
40 9 14 11 23 6 19 -6 -3 -13 -2 -17 4 -4 6 -12 7 -18 4 -7 -4 -2 3 11 15 18
18 21 26 11 37 -9 11 -8 14 5 14 9 0 16 5 16 12 0 6 -3 9 -6 5 -8 -8 -34 18
-34 33 0 6 7 13 15 16 8 3 17 16 21 27 11 35 64 78 88 71 12 -4 23 -8 25 -10z
m1055 -110 c-8 -30 11 -54 43 -54 17 0 22 -4 17 -12 -5 -9 -2 -8 10 1 13 11
20 11 28 3 18 -18 -1 -30 -52 -34 -38 -3 -46 -7 -48 -25 -4 -29 -13 -29 -42 2
-20 21 -32 25 -82 25 -51 0 -59 2 -56 17 2 13 20 20 63 28 47 8 61 14 63 30 6
28 31 55 48 48 9 -3 12 -13 8 -29z m-238 -17 c-6 -24 18 -87 33 -87 18 0 12
-29 -8 -40 -11 -5 -23 -19 -26 -30 -8 -26 -31 -26 -38 0 -3 14 -14 20 -31 20
-14 0 -26 2 -26 4 0 2 -3 11 -6 20 -4 11 -1 16 10 16 31 0 56 37 56 83 0 24 3
47 7 50 12 12 34 -16 29 -36z m361 16 c6 -19 -45 -49 -60 -34 -8 8 -8 11 1 11
7 0 12 5 12 11 0 5 -4 7 -10 4 -11 -7 -14 8 -3 19 11 11 56 3 60 -11z m-1461
-58 c1 -8 -4 -19 -12 -26 -11 -9 -14 -7 -14 13 0 39 21 49 26 13z m1437 -84
c3 -11 0 -28 -7 -38 -6 -10 -17 -35 -25 -56 -11 -34 -10 -41 11 -79 13 -24 34
-48 46 -54 39 -19 44 -29 25 -46 -35 -32 -51 -26 -85 32 -18 30 -40 55 -49 55
-9 0 -42 -24 -73 -52 -31 -29 -61 -53 -66 -53 -25 0 -18 25 17 55 21 18 35 36
31 40 -4 4 -27 2 -52 -5 -47 -13 -66 -8 -66 16 0 20 41 34 103 34 78 1 99 27
85 105 -2 16 2 19 23 17 21 -3 28 2 33 22 8 31 41 35 49 7z m-185 -3 c-3 -7
-15 -14 -29 -16 -52 -7 -57 -62 -5 -62 28 0 43 11 47 35 6 29 32 24 43 -8 14
-39 -14 -63 -82 -70 -67 -8 -90 11 -86 68 4 42 9 51 39 58 41 10 77 7 73 -5z
m-527 -17 c19 -16 22 -22 12 -32 -11 -10 -18 -9 -40 7 -15 11 -29 26 -31 32
-6 19 33 14 59 -7z m-231 1 c0 -17 -39 -44 -55 -39 -18 8 -20 33 -2 40 20 9
57 8 57 -1z m-440 -32 c0 -11 -4 -20 -10 -20 -5 0 -10 9 -10 20 0 11 5 20 10
20 6 0 10 -9 10 -20z m279 -148 c0 -109 -1 -115 -13 -79 -15 39 -10 211 4 202
5 -3 8 -58 9 -123z m761 103 c0 -9 12 -20 26 -25 43 -17 26 -42 -45 -67 -35
-12 -67 -20 -72 -17 -19 12 -8 46 21 62 16 9 32 27 35 39 6 26 35 32 35 8z
m-474 -19 c17 -13 17 -15 2 -21 -27 -11 -63 -1 -66 18 -4 22 35 24 64 3z
m-441 -109 c4 -40 2 -47 -13 -47 -33 0 -47 18 -47 60 0 25 6 44 15 50 23 14
40 -10 45 -63z m494 40 c57 -29 52 -79 -10 -85 -33 -4 -33 -3 -15 17 53 58
-53 78 -151 28 -31 -17 -43 -14 -43 10 0 35 165 58 219 30z m371 -157 c57 0
75 -10 48 -26 -7 -4 -8 -3 -4 4 5 9 -10 12 -53 12 l-61 0 2 73 2 72 3 -67 4
-68 59 0z m-442 74 c30 -12 45 -44 21 -44 -5 0 -7 -4 -4 -10 3 -5 2 -10 -4
-10 -6 0 -15 9 -21 20 -6 11 -23 23 -38 26 -33 8 -54 23 -46 35 6 10 42 3 92
-17z m909 -26 c-3 -8 -6 -5 -6 6 -1 11 2 17 5 13 3 -3 4 -12 1 -19z m-1182
-38 c3 -5 1 -10 -4 -10 -6 0 -11 5 -11 10 0 6 2 10 4 10 3 0 8 -4 11 -10z
m908 -37 c-7 -2 -19 -2 -25 0 -7 3 -2 5 12 5 14 0 19 -2 13 -5z m-28 -32 c-7
-12 -64 -25 -73 -16 -3 3 0 10 8 15 19 12 73 13 65 1z m-115 -41 c-8 -5 -22
-9 -30 -9 -10 0 -8 3 5 9 27 12 43 12 25 0z m-872 -43 c8 -10 5 -13 -13 -15
-13 -1 -27 3 -31 10 -4 6 -3 8 4 4 6 -3 13 -2 17 4 8 13 10 13 23 -3z m675
-14 c-24 -8 -43 -19 -43 -24 0 -16 -44 -9 -70 11 l-25 20 32 0 c17 0 33 -4 35
-9 2 -5 19 -3 38 4 19 7 44 13 55 13 11 0 1 -6 -22 -15z m-545 -35 c-4 -30
-21 -32 -49 -8 -24 21 -24 21 -1 15 13 -4 22 -2 22 4 0 6 7 11 16 11 10 0 14
-7 12 -22z m112 -8 c0 -5 -4 -10 -9 -10 -6 0 -13 5 -16 10 -3 6 1 10 9 10 9 0
16 -4 16 -10z"/>
<path d="M287 909 c7 -7 15 -10 18 -7 3 3 -2 9 -12 12 -14 6 -15 5 -6 -5z"/>
<path d="M420 1470 c0 -5 7 -10 15 -10 8 0 15 5 15 10 0 6 -7 10 -15 10 -8 0
-15 -4 -15 -10z"/>
<path d="M350 1450 c-24 -15 -7 -18 25 -4 23 10 25 13 10 13 -11 1 -27 -3 -35
-9z"/>
<path d="M760 1145 c-11 -13 -6 -15 37 -15 37 0 50 4 50 15 0 11 -11 15 -37
15 -21 0 -43 -7 -50 -15z"/>
<path d="M79 1133 c-10 -2 -19 -13 -22 -23 -4 -16 -2 -17 14 -7 14 9 39 42 26
36 -1 -1 -9 -3 -18 -6z"/>
<path d="M997 858 c-4 -21 -4 -73 3 -233 2 -50 2 -50 11 -15 7 30 2 260 -6
268 -1 2 -5 -7 -8 -20z"/>
<path d="M40 861 c0 -5 5 -13 10 -16 6 -3 10 -2 10 4 0 5 -4 13 -10 16 -5 3
-10 2 -10 -4z"/>
<path d="M1805 730 c-3 -6 1 -7 9 -4 18 7 21 14 7 14 -6 0 -13 -4 -16 -10z"/>
<path d="M1754 678 c-39 -44 -46 -62 -10 -24 20 21 36 40 36 42 0 8 -7 3 -26
-18z"/>
<path d="M1787 632 c-20 -22 -21 -32 -5 -32 6 0 8 3 5 7 -4 3 0 15 10 25 9 10
14 18 11 18 -3 0 -12 -8 -21 -18z"/>
<path d="M1725 610 c-16 -7 -17 -9 -3 -9 9 -1 20 4 23 9 7 11 7 11 -20 0z"/>
<path d="M1105 429 c-10 -15 3 -25 16 -12 7 7 7 13 1 17 -6 3 -14 1 -17 -5z"/>
</g>
</svg>
