<?xml version="1.0" encoding="iso-8859-1"?>
<!-- Generator: Adobe Illustrator 25.3.1, SVG Export Plug-In . SVG Version: 6.00 Build 0)  -->
<svg version="1.1" id="Layer_1" xmlns="http://www.w3.org/2000/svg" xmlns:xlink="http://www.w3.org/1999/xlink" x="0px" y="0px"
	 viewBox="0 0 241 54.7" style="enable-background:new 0 0 241 54.7;" xml:space="preserve">
<path style="fill:#231815;" d="M161.6,40.2h54.3c2,0,3.6-1.6,3.6-3.6V18.2c0-2-1.6-3.6-3.6-3.6h-54.3c-2,0-3.6,1.6-3.6,3.6v18.3
	C158,38.6,159.6,40.2,161.6,40.2z"/>
<path style="opacity:0.86;fill:none;stroke:#727272;stroke-width:3;stroke-miterlimit:10;enable-background:new    ;" d="
	M216.4,43.8H161c-3.7,0-6.7-3-6.7-6.7V17.5c0-3.7,3-6.7,6.7-6.7h55.4c3.7,0,6.7,3,6.7,6.7v19.6C223.1,40.8,220.1,43.8,216.4,43.8z"
	/>
<path style="opacity:0.86;fill:#727272;enable-background:new    ;" d="M227.6,22.1c1.9,0,3.5,2.5,3.5,5.7s-1.6,5.7-3.5,5.7V22.1z"
	/>
<g>
	<path style="fill:#231815;" d="M16.6,45.2L16.6,45.2c-2.9,0-5.2-2.4-5.2-5.2v-3.6c0-2.9,2.4-5.2,5.2-5.2l0,0c2.9,0,5.2,2.4,5.2,5.2
		V40C21.8,42.8,19.5,45.2,16.6,45.2z"/>
	<path style="fill:#231815;" d="M32.6,45.2L32.6,45.2c-2.9,0-5.2-2.3-5.2-5.2V30c0-2.9,2.3-5.2,5.2-5.2l0,0c2.9,0,5.2,2.3,5.2,5.2
		v10C37.8,42.8,35.4,45.2,32.6,45.2z"/>
	<path style="fill:#231815;" d="M48.8,45.2L48.8,45.2c-2.9,0-5.2-2.3-5.2-5.2V21.4c0-2.9,2.3-5.2,5.2-5.2l0,0c2.9,0,5.2,2.3,5.2,5.2
		v18.5C54,42.8,51.7,45.2,48.8,45.2z"/>
	<path style="fill:#231815;" d="M64.9,45.2L64.9,45.2c-2.9,0-5.2-2.3-5.2-5.2V12.7c0-2.9,2.3-5.2,5.2-5.2l0,0c2.9,0,5.2,2.3,5.2,5.2
		V40C70.1,42.8,67.8,45.2,64.9,45.2z"/>
</g>
<g>
	<path style="fill:#231815;" d="M138.1,17.5c-14.7-13.4-37.3-13.4-52.1,0c-0.6,0.6-0.8,1.7-0.1,2.5l2.7,2.7c0.6,0.6,1.6,0.6,2.4,0.1
		c12-10.9,30.4-10.9,42.4,0c0.6,0.5,1.6,0.5,2.4-0.1l2.7-2.7C138.9,19.2,138.8,18.1,138.1,17.5z"/>
	<path style="fill:#231815;" d="M128.1,27.5c-8.9-7.7-23.1-7.7-32.2,0c-0.8,0.6-0.8,1.7-0.1,2.5l2.7,2.7c0.5,0.5,1.5,0.6,2.2,0.1
		c6.3-5.3,16.3-5.3,22.6,0c0.6,0.5,1.6,0.4,2.2-0.1l2.7-2.7C128.9,29.2,128.9,28,128.1,27.5z"/>
	<path style="fill:#231815;" d="M106.4,37.8c3.2-3.2,8.3-3.2,11.5,0l0,0c0.6,0.6,0.6,1.8,0,2.6l-4.4,4.4c-0.6,0.6-1.8,0.6-2.6,0
		l-4.4-4.4C105.7,39.5,105.7,38.5,106.4,37.8z"/>
</g>
</svg>
